<?xml version="1.0" standalone="no"?>
<!DOCTYPE svg PUBLIC "-//W3C//DTD SVG 20010904//EN"
 "http://www.w3.org/TR/2001/REC-SVG-20010904/DTD/svg10.dtd">
<svg version="1.0" xmlns="http://www.w3.org/2000/svg"
 width="811.000000pt" height="531.000000pt" viewBox="0 0 811.000000 531.000000"
 preserveAspectRatio="xMidYMid meet">

<g transform="translate(0.000000,531.000000) scale(0.100000,-0.100000)"
fill="#000000" stroke="none">
<path d="M0 2655 l0 -2655 4055 0 4055 0 0 2655 0 2655 -4055 0 -4055 0 0
-2655z m4755 1901 c69 -29 65 63 65 -1341 0 -1165 -1 -1269 -17 -1295 -33 -57
-8 -55 -758 -55 -679 0 -693 0 -715 20 -52 46 -50 -6 -50 1329 0 1103 2 1250
16 1284 14 36 32 52 74 65 8 3 316 6 683 6 556 1 673 -1 702 -13z m-2483
-2959 c7 -8 35 -109 62 -225 28 -117 53 -212 56 -212 3 0 23 94 44 209 22 116
42 215 46 221 9 15 115 21 132 7 10 -8 27 -83 48 -212 18 -110 36 -209 40
-220 9 -24 8 -25 77 243 52 208 54 209 146 197 l49 -7 -5 -37 c-2 -20 -38
-165 -80 -324 -42 -158 -83 -324 -92 -370 -10 -45 -22 -88 -27 -94 -6 -8 -33
-13 -64 -13 -66 0 -58 -15 -109 223 -21 97 -42 177 -46 177 -7 0 -40 -132 -78
-310 l-17 -85 -62 -3 -61 -3 -10 38 c-36 134 -191 771 -191 785 0 21 14 26 77
27 31 1 57 -4 65 -12z m1258 -57 l0 -70 -95 0 c-94 0 -96 0 -106 -27 -5 -15
-9 -54 -7 -87 l3 -61 94 -1 c105 -1 109 -3 110 -75 1 -59 -12 -68 -114 -71
l-90 -3 0 -105 0 -105 89 -3 c50 -2 96 -8 103 -14 8 -6 13 -33 13 -69 0 -79
-5 -81 -191 -77 -120 2 -152 6 -159 18 -13 20 -13 761 0 794 l10 26 170 0 170
0 0 -70z m635 54 c12 -12 15 -31 13 -73 l-3 -56 -54 3 c-83 6 -135 -14 -180
-65 -103 -116 -92 -361 19 -468 29 -28 37 -30 126 -33 l94 -4 0 -51 c0 -77 -6
-82 -97 -81 -238 4 -369 173 -350 453 3 47 13 108 21 135 32 103 119 196 225
237 60 24 163 25 186 3z m549 -58 c8 -39 45 -210 82 -381 37 -171 69 -327 72
-347 l4 -38 -65 0 -66 0 -15 54 -16 53 -58 6 c-32 4 -71 3 -87 -2 -25 -6 -31
-14 -37 -51 -4 -24 -11 -47 -16 -52 -5 -5 -38 -8 -73 -6 -62 3 -64 4 -61 28 5
33 172 793 177 800 2 3 35 6 74 6 l70 1 15 -71z m494 62 c9 -9 12 -100 12
-350 l0 -337 98 -3 97 -3 0 -70 0 -70 -166 -3 -166 -2 -7 61 c-12 117 -7 764
6 777 7 7 35 12 63 12 28 0 56 -5 63 -12z m550 0 c9 -9 12 -100 12 -350 l0
-337 98 -3 97 -3 0 -70 0 -70 -170 0 -170 0 -3 409 c-1 293 1 413 9 422 14 17
110 19 127 2z"/>
<path d="M3920 4470 c0 -16 40 -21 149 -18 72 2 106 7 109 16 3 9 -27 12 -127
12 -79 0 -131 -4 -131 -10z"/>
<path d="M3370 3255 l0 -1125 680 0 680 0 0 1125 0 1125 -680 0 -680 0 0
-1125z m870 332 c119 -40 226 -105 305 -186 l50 -52 -25 -19 -25 -19 -32 34
c-91 94 -193 153 -325 187 -198 50 -434 -18 -580 -166 -52 -54 -53 -55 -75
-37 l-22 18 35 42 c46 54 146 124 226 160 55 24 85 34 173 55 40 10 251 -3
295 -17z m15 -116 c85 -33 203 -113 231 -157 18 -26 17 -27 -5 -45 l-23 -19
-63 59 c-152 142 -385 172 -578 74 -38 -19 -91 -54 -117 -79 -53 -49 -60 -52
-84 -26 -15 18 -15 21 5 45 30 39 136 112 199 138 99 40 150 49 255 45 83 -3
114 -9 180 -35z m-84 -89 c76 -20 163 -70 215 -123 l36 -37 -26 -17 c-26 -17
-27 -17 -69 22 -23 22 -70 53 -102 69 -56 27 -68 29 -175 29 -106 0 -119 -2
-170 -28 -30 -16 -74 -47 -97 -69 -40 -39 -44 -41 -68 -28 -14 7 -25 18 -25
23 0 18 80 84 139 116 111 59 225 73 342 43z m-2 -121 c49 -18 141 -85 141
-102 0 -4 -9 -13 -20 -19 -17 -9 -29 -5 -68 23 -53 39 -127 67 -177 67 -50 0
-136 -35 -182 -75 -48 -41 -54 -42 -79 -14 -19 21 -19 21 24 60 24 21 67 47
95 58 70 27 198 28 266 2z m-28 -100 c49 -19 89 -46 89 -61 0 -8 -181 -130
-193 -130 -12 0 -177 120 -177 129 0 15 38 42 86 61 63 25 131 25 195 1z"/>
<path d="M4032 2049 c-32 -12 -48 -52 -34 -84 13 -28 57 -43 81 -28 23 14 40
51 34 74 -8 28 -52 49 -81 38z"/>
<path d="M4598 1148 c-14 -57 -23 -106 -21 -110 2 -5 24 -8 49 -8 35 0 44 3
44 18 0 21 -38 194 -44 199 -2 2 -15 -42 -28 -99z"/>
</g>
</svg>
